<svg width="29" height="30" viewBox="0 0 29 30" fill="none" xmlns="http://www.w3.org/2000/svg">
<path d="M21.2 9.48C20.56 8.30667 19.68 7.41333 18.56 6.8C17.44 6.18667 16.1333 5.88 14.64 5.88C12.9867 5.88 11.52 6.25333 10.24 7C8.96 7.74667 7.96 8.81333 7.24 10.2C6.52 11.5867 6.16 13.1867 6.16 15C6.16 16.8667 6.52 18.4933 7.24 19.88C7.98667 21.2667 9.01333 22.3333 10.32 23.08C11.6267 23.8267 13.1467 24.2 14.88 24.2C17.0133 24.2 18.76 23.64 20.12 22.52C21.48 21.3733 22.3733 19.7867 22.8 17.76H13.2V13.48H28.32V18.36C27.9467 20.3067 27.1467 22.1067 25.92 23.76C24.6933 25.4133 23.1067 26.7467 21.16 27.76C19.24 28.7467 17.08 29.24 14.68 29.24C11.9867 29.24 9.54667 28.64 7.36 27.44C5.2 26.2133 3.49333 24.52 2.24 22.36C1.01333 20.2 0.4 17.7467 0.4 15C0.4 12.2533 1.01333 9.8 2.24 7.64C3.49333 5.45333 5.2 3.76 7.36 2.56C9.54667 1.33333 11.9733 0.719999 14.64 0.719999C17.7867 0.719999 20.52 1.49333 22.84 3.04C25.16 4.56 26.76 6.70667 27.64 9.48H21.2Z" fill="#001242"/>
</svg>
