<svg width="222" height="33" viewBox="0 0 222 33" fill="none" xmlns="http://www.w3.org/2000/svg">
<path d="M21.2 12.48C20.56 11.3067 19.68 10.4133 18.56 9.8C17.44 9.18667 16.1333 8.88 14.64 8.88C12.9867 8.88 11.52 9.25333 10.24 10C8.96 10.7467 7.96 11.8133 7.24 13.2C6.52 14.5867 6.16 16.1867 6.16 18C6.16 19.8667 6.52 21.4933 7.24 22.88C7.98667 24.2667 9.01333 25.3333 10.32 26.08C11.6267 26.8267 13.1467 27.2 14.88 27.2C17.0133 27.2 18.76 26.64 20.12 25.52C21.48 24.3733 22.3733 22.7867 22.8 20.76H13.2V16.48H28.32V21.36C27.9467 23.3067 27.1467 25.1067 25.92 26.76C24.6933 28.4133 23.1067 29.7467 21.16 30.76C19.24 31.7467 17.08 32.24 14.68 32.24C11.9867 32.24 9.54667 31.64 7.36 30.44C5.2 29.2133 3.49333 27.52 2.24 25.36C1.01333 23.2 0.4 20.7467 0.4 18C0.4 15.2533 1.01333 12.8 2.24 10.64C3.49333 8.45333 5.2 6.76 7.36 5.56C9.54667 4.33333 11.9733 3.72 14.64 3.72C17.7867 3.72 20.52 4.49333 22.84 6.04C25.16 7.56 26.76 9.70667 27.64 12.48H21.2ZM31.0231 20.84C31.0231 18.6 31.4631 16.6133 32.3431 14.88C33.2498 13.1467 34.4631 11.8133 35.9831 10.88C37.5298 9.94667 39.2498 9.48 41.1431 9.48C42.7965 9.48 44.2365 9.81333 45.4631 10.48C46.7165 11.1467 47.7165 11.9867 48.4631 13V9.84H54.1031V32H48.4631V28.76C47.7431 29.8 46.7431 30.6667 45.4631 31.36C44.2098 32.0267 42.7565 32.36 41.1031 32.36C39.2365 32.36 37.5298 31.88 35.9831 30.92C34.4631 29.96 33.2498 28.6133 32.3431 26.88C31.4631 25.12 31.0231 23.1067 31.0231 20.84ZM48.4631 20.92C48.4631 19.56 48.1965 18.4 47.6631 17.44C47.1298 16.4533 46.4098 15.7067 45.5031 15.2C44.5965 14.6667 43.6231 14.4 42.5831 14.4C41.5431 14.4 40.5831 14.6533 39.7031 15.16C38.8231 15.6667 38.1031 16.4133 37.5431 17.4C37.0098 18.36 36.7431 19.5067 36.7431 20.84C36.7431 22.1733 37.0098 23.3467 37.5431 24.36C38.1031 25.3467 38.8231 26.1067 39.7031 26.64C40.6098 27.1733 41.5698 27.44 42.5831 27.44C43.6231 27.44 44.5965 27.1867 45.5031 26.68C46.4098 26.1467 47.1298 25.4 47.6631 24.44C48.1965 23.4533 48.4631 22.28 48.4631 20.92ZM87.0925 9.52C89.8125 9.52 91.9992 10.36 93.6525 12.04C95.3325 13.6933 96.1725 16.0133 96.1725 19V32H90.5725V19.76C90.5725 18.0267 90.1325 16.7067 89.2525 15.8C88.3725 14.8667 87.1725 14.4 85.6525 14.4C84.1325 14.4 82.9192 14.8667 82.0125 15.8C81.1325 16.7067 80.6925 18.0267 80.6925 19.76V32H75.0925V19.76C75.0925 18.0267 74.6525 16.7067 73.7725 15.8C72.8925 14.8667 71.6925 14.4 70.1725 14.4C68.6258 14.4 67.3992 14.8667 66.4925 15.8C65.6125 16.7067 65.1725 18.0267 65.1725 19.76V32H59.5725V9.84H65.1725V12.52C65.8925 11.5867 66.8125 10.8533 67.9325 10.32C69.0792 9.78666 70.3325 9.52 71.6925 9.52C73.4258 9.52 74.9725 9.89333 76.3325 10.64C77.6925 11.36 78.7458 12.4 79.4925 13.76C80.2125 12.48 81.2525 11.4533 82.6125 10.68C83.9992 9.90667 85.4925 9.52 87.0925 9.52ZM122.087 20.44C122.087 21.24 122.033 21.96 121.927 22.6H105.727C105.86 24.2 106.42 25.4533 107.407 26.36C108.393 27.2667 109.607 27.72 111.047 27.72C113.127 27.72 114.607 26.8267 115.487 25.04H121.527C120.887 27.1733 119.66 28.9333 117.847 30.32C116.033 31.68 113.807 32.36 111.167 32.36C109.033 32.36 107.113 31.8933 105.407 30.96C103.727 30 102.407 28.6533 101.447 26.92C100.513 25.1867 100.047 23.1867 100.047 20.92C100.047 18.6267 100.513 16.6133 101.447 14.88C102.38 13.1467 103.687 11.8133 105.367 10.88C107.047 9.94667 108.98 9.48 111.167 9.48C113.273 9.48 115.153 9.93333 116.807 10.84C118.487 11.7467 119.78 13.04 120.687 14.72C121.62 16.3733 122.087 18.28 122.087 20.44ZM116.287 18.84C116.26 17.4 115.74 16.2533 114.727 15.4C113.713 14.52 112.473 14.08 111.007 14.08C109.62 14.08 108.447 14.5067 107.487 15.36C106.553 16.1867 105.98 17.3467 105.767 18.84H116.287Z" fill="#001242"/>
<path d="M156.614 4.08V32H151.014V13.84L143.534 32H139.294L131.774 13.84V32H126.174V4.08H132.534L141.414 24.84L150.294 4.08H156.614ZM164.991 7.2C164.004 7.2 163.177 6.89333 162.511 6.28C161.871 5.64 161.551 4.85333 161.551 3.92C161.551 2.98667 161.871 2.21333 162.511 1.6C163.177 0.959998 164.004 0.639998 164.991 0.639998C165.977 0.639998 166.791 0.959998 167.431 1.6C168.097 2.21333 168.431 2.98667 168.431 3.92C168.431 4.85333 168.097 5.64 167.431 6.28C166.791 6.89333 165.977 7.2 164.991 7.2ZM167.751 9.84V32H162.151V9.84H167.751ZM185.563 9.52C188.203 9.52 190.337 10.36 191.963 12.04C193.59 13.6933 194.403 16.0133 194.403 19V32H188.803V19.76C188.803 18 188.363 16.6533 187.483 15.72C186.603 14.76 185.403 14.28 183.883 14.28C182.337 14.28 181.11 14.76 180.203 15.72C179.323 16.6533 178.883 18 178.883 19.76V32H173.283V9.84H178.883V12.6C179.63 11.64 180.577 10.8933 181.723 10.36C182.897 9.8 184.177 9.52 185.563 9.52ZM198.289 20.84C198.289 18.6 198.729 16.6133 199.609 14.88C200.515 13.1467 201.742 11.8133 203.289 10.88C204.835 9.94667 206.555 9.48 208.449 9.48C209.889 9.48 211.262 9.8 212.569 10.44C213.875 11.0533 214.915 11.88 215.689 12.92V2.4H221.369V32H215.689V28.72C214.995 29.8133 214.022 30.6933 212.769 31.36C211.515 32.0267 210.062 32.36 208.409 32.36C206.542 32.36 204.835 31.88 203.289 30.92C201.742 29.96 200.515 28.6133 199.609 26.88C198.729 25.12 198.289 23.1067 198.289 20.84ZM215.729 20.92C215.729 19.56 215.462 18.4 214.929 17.44C214.395 16.4533 213.675 15.7067 212.769 15.2C211.862 14.6667 210.889 14.4 209.849 14.4C208.809 14.4 207.849 14.6533 206.969 15.16C206.089 15.6667 205.369 16.4133 204.809 17.4C204.275 18.36 204.009 19.5067 204.009 20.84C204.009 22.1733 204.275 23.3467 204.809 24.36C205.369 25.3467 206.089 26.1067 206.969 26.64C207.875 27.1733 208.835 27.44 209.849 27.44C210.889 27.44 211.862 27.1867 212.769 26.68C213.675 26.1467 214.395 25.4 214.929 24.44C215.462 23.4533 215.729 22.28 215.729 20.92Z" fill="#FABE4B"/>
</svg>
